<svg width="250" height="201" viewBox="0 0 250 201" fill="none" xmlns="http://www.w3.org/2000/svg">
<g clip-path="url(#clip0)">
<path opacity="0.24" d="M205.349 14.8213C200.045 10.5086 194.668 7.15428 190.165 6.57926L163.279 3.15307C140.205 0.210856 116.278 -2.65948 94.0919 4.38937C66.9994 13.0147 45.4223 37.0412 39.7966 64.8868C38.1036 73.2534 37.7439 81.9123 35.1109 90.0346C31.1638 102.206 22.4879 112.139 15.198 122.682C7.8026 133.348 1.56783 145.29 0.229749 158.223C-1.10833 171.156 3.25122 185.216 13.6585 193.002C24.0658 200.789 38.1468 201.053 51.1678 200.981C103.257 200.698 156.967 202.184 208.754 197.627C220.84 196.553 233.631 193.424 241.707 184.377C251.995 172.843 251.52 155.103 246.681 140.431C241.842 125.758 233.358 112.437 229.113 97.5818C225.974 86.5567 225.25 74.9853 226.988 63.6553C228.427 54.2632 232.408 41.6127 224.835 33.7444C220.264 28.9621 212.874 20.9309 205.349 14.8213Z" fill="#FEB600"/>
<path d="M174.219 75.2899L161.293 71.7967L160.593 74.1255L177.01 84.8306L174.219 75.2899Z" fill="#41A0DB"/>
<path opacity="0.37" d="M174.487 75.4529L161.562 71.9596L160.867 74.2884L177.283 84.9887L174.487 75.4529Z" fill="url(#paint0_linear)"/>
<path d="M204.141 62.0069C203.383 62.6059 202.654 63.339 201.704 63.5307C200.318 63.8086 199.009 62.8407 197.978 61.8679C196.587 60.5549 195.268 59.0407 194.755 57.1958C194.242 55.3509 194.755 53.1084 196.347 52.0637C197.398 51.3881 198.721 51.3162 199.973 51.3162C202.181 51.3255 204.384 51.5081 206.563 51.8625C207.076 51.9166 207.575 52.0644 208.035 52.2985C209.647 53.2281 209.8 55.5091 209.143 57.0233C208.088 59.472 206.126 60.4351 204.141 62.0069Z" fill="url(#paint1_linear)"/>
<path d="M185.921 55.2791C185.921 55.2791 187.945 50.7316 192.784 51.666C197.623 52.6004 202.63 61.6187 200.764 66.3291C199.631 69.1903 198.227 71.9372 196.573 74.5328L194.846 73.3253C194.846 73.3253 198.808 68.9599 198.808 65.2989C198.808 61.6379 192.865 55.9883 192.693 55.8158C192.52 55.6433 189.489 53.4198 187.336 56.8604C185.182 60.301 185.921 55.2791 185.921 55.2791Z" fill="#41A0DB"/>
<path opacity="0.37" d="M185.921 55.2791C185.921 55.2791 187.945 50.7316 192.784 51.666C197.623 52.6004 202.63 61.6187 200.764 66.3291C199.631 69.1903 198.227 71.9372 196.573 74.5328L194.846 73.3253C194.846 73.3253 198.808 68.9599 198.808 65.2989C198.808 61.6379 192.865 55.9883 192.693 55.8158C192.52 55.6433 189.489 53.4198 187.336 56.8604C185.182 60.301 185.921 55.2791 185.921 55.2791Z" fill="url(#paint2_linear)"/>
<path d="M207.709 44.4638C207.066 44.7178 206.294 45.0676 206.227 45.7576C206.209 46.0089 206.254 46.2607 206.357 46.4908C206.774 47.3594 207.283 48.1804 207.877 48.9394C209.503 51.3018 210.601 53.9757 211.949 56.5058C212.012 56.6603 212.121 56.7922 212.261 56.8844C212.413 56.9466 212.58 56.96 212.74 56.9227C214.179 56.7214 215.483 55.8829 216.726 55.0922C219.974 53.0157 223.304 51.0846 226.716 49.2988C227.64 48.9 228.46 48.2951 229.114 47.5306C229.833 46.5435 229.934 45.2401 229.915 44.0134C229.944 42.2472 229.658 40.4899 229.07 38.8238C228.464 37.1673 227.343 35.7483 225.872 34.7746C224.773 34.0846 223.474 32.7429 222.164 33.4377C220.855 34.1325 219.766 35.3545 218.702 36.2745C216.481 38.2631 214.356 40.3716 211.92 42.0966C210.617 43.0526 209.203 43.8475 207.709 44.4638Z" fill="#41A0DB"/>
<path d="M204.961 47.4491C204.783 47.526 204.639 47.6659 204.558 47.8421C204.526 47.9872 204.543 48.1389 204.606 48.2733C204.88 48.9873 205.455 49.5288 205.887 50.1566C206.209 50.6658 206.488 51.2012 206.721 51.757C207.484 53.4294 208.275 55.1114 209.119 56.731C209.139 56.8032 209.177 56.8688 209.231 56.9206C209.285 56.9725 209.352 57.0088 209.425 57.0255C209.498 57.0422 209.574 57.0388 209.645 57.0157C209.716 56.9925 209.78 56.9504 209.829 56.8939C210.535 56.4892 211.181 55.9875 211.747 55.4037C211.81 55.3469 211.86 55.2764 211.891 55.1976C211.911 55.0931 211.901 54.9853 211.863 54.8861C211.617 54.1763 211.296 53.4951 210.903 52.8544C210.075 51.4238 209.17 50.0386 208.194 48.7046C207.786 48.1296 207.335 47.2095 206.755 46.7879C206.174 46.3662 205.436 47.1952 204.961 47.4491Z" fill="white"/>
<path d="M190.371 58.4178C189.928 58.1505 189.58 57.7495 189.379 57.2725C189.281 57.0346 189.239 56.7777 189.255 56.5211C189.272 56.2645 189.347 56.0151 189.475 55.7918C189.663 55.5106 189.904 55.2682 190.184 55.0778C190.977 54.4765 191.816 53.9382 192.693 53.4677C193.155 53.2056 193.648 53.0027 194.16 52.864C194.654 52.7609 195.157 52.7079 195.661 52.7058C196.103 52.6538 196.551 52.7165 196.961 52.8879C197.23 53.0356 197.44 53.2723 197.553 53.5572C197.667 53.8422 197.678 54.1579 197.585 54.4501C197.317 54.9856 196.892 55.4269 196.366 55.7151C195.235 56.5441 194.28 57.5935 193.134 58.4082C192.731 58.6942 192.249 58.8486 191.754 58.8503C191.26 58.8521 190.777 58.701 190.371 58.4178Z" fill="url(#paint3_linear)"/>
<path d="M192.194 61.3456C191.75 61.0804 191.403 60.6786 191.206 60.2003C191.109 59.9626 191.066 59.706 191.082 59.4496C191.098 59.1932 191.171 58.9437 191.297 58.7196C191.49 58.4405 191.732 58.1986 192.012 58.0057C192.805 57.4044 193.643 56.866 194.52 56.3956C194.98 56.1335 195.472 55.9306 195.983 55.7918C196.478 55.689 196.983 55.636 197.489 55.6337C197.93 55.5819 198.378 55.6446 198.788 55.8158C199.056 55.9648 199.265 56.2016 199.378 56.4861C199.492 56.7707 199.504 57.0856 199.412 57.3779C199.149 57.9188 198.728 58.3668 198.203 58.6621C197.072 59.4911 196.117 60.5406 194.971 61.3552C194.564 61.6416 194.078 61.7946 193.581 61.7929C193.083 61.7911 192.599 61.6348 192.194 61.3456Z" fill="url(#paint4_linear)"/>
<path d="M194.319 63.9236C193.874 63.6584 193.528 63.2567 193.331 62.7784C193.233 62.5406 193.191 62.284 193.207 62.0276C193.223 61.7712 193.296 61.5217 193.422 61.2977C193.614 61.0189 193.856 60.7783 194.137 60.5885C194.928 59.984 195.767 59.444 196.645 58.9736C197.105 58.7115 197.596 58.5086 198.108 58.3698C198.603 58.2662 199.108 58.2148 199.614 58.2165C200.055 58.1607 200.503 58.2219 200.913 58.3938C201.181 58.5437 201.39 58.7813 201.503 59.0667C201.617 59.352 201.629 59.6677 201.537 59.9607C201.266 60.4929 200.841 60.9319 200.319 61.221C199.182 62.05 198.227 63.0994 197.081 63.914C196.678 64.2001 196.196 64.3545 195.702 64.3562C195.207 64.3579 194.724 64.2068 194.319 63.9236Z" fill="url(#paint5_linear)"/>
<path d="M196.765 66.2764C196.321 66.0124 195.975 65.6125 195.777 65.136C195.68 64.8973 195.637 64.64 195.653 64.3829C195.669 64.1258 195.742 63.8755 195.868 63.6505C196.061 63.3743 196.301 63.1343 196.578 62.9413C197.372 62.3394 198.212 61.801 199.091 61.3312C199.543 61.0694 200.026 60.865 200.529 60.7226C201.025 60.6235 201.53 60.5722 202.035 60.5693C202.477 60.5183 202.924 60.5793 203.335 60.7466C203.603 60.8965 203.812 61.1341 203.925 61.4195C204.039 61.7048 204.051 62.0205 203.959 62.3135C203.689 62.8494 203.262 63.2906 202.736 63.5786C201.604 64.4076 200.649 65.457 199.503 66.2716C199.103 66.5556 198.625 66.7085 198.135 66.7094C197.644 66.7103 197.165 66.559 196.765 66.2764Z" fill="url(#paint6_linear)"/>
<path d="M197.796 47.7271C197.453 47.7059 197.109 47.7432 196.779 47.8373C196.29 48.0496 195.86 48.3787 195.527 48.7957L192.784 51.6708C192.491 51.9488 192.245 52.2725 192.055 52.6292C191.879 53.0614 191.788 53.5234 191.786 53.9901C191.705 55.212 191.666 56.4387 191.666 57.6606C191.65 57.8301 191.694 57.9999 191.791 58.1398C191.863 58.2027 191.948 58.2483 192.041 58.2732C192.133 58.2981 192.23 58.3016 192.324 58.2836C192.933 58.2083 193.507 57.9542 193.972 57.5534C194.437 57.1525 194.773 56.6229 194.937 56.0314C195.011 55.6339 195.135 55.2474 195.307 54.8813C195.648 54.4248 196.114 54.0769 196.65 53.8798C196.732 53.8327 196.824 53.8033 196.918 53.7936C197.064 53.799 197.205 53.8492 197.321 53.9373C198.127 54.4165 198.937 54.8957 199.781 55.3078C200.807 55.8835 201.962 56.1901 203.138 56.1991C204.491 56.0978 205.783 55.5974 206.851 54.7615C207.202 54.4619 207.485 54.0895 207.679 53.67C207.873 53.2505 207.973 52.794 207.973 52.3321C207.92 51.0766 206.975 50.0607 206.088 49.1694C205.68 48.7621 205.325 48.2111 204.726 48.1392C203.963 48.0769 203.177 48.1392 202.405 48.0817C200.87 47.9571 199.335 47.7271 197.796 47.7271Z" fill="url(#paint7_linear)"/>
<path d="M167.116 59.6972L168.977 61.6762L176.43 85.8752L176.665 87.9692L200.069 77.9638L197.738 75.635L186.094 53.6498L186.329 52.1356L167.116 59.6972Z" fill="#41A0DB"/>
<path d="M161.754 71.6817C161.753 72.3929 161.612 73.0971 161.339 73.7538C161.066 74.4106 160.666 75.0071 160.161 75.5091C159.657 76.0112 159.059 76.4089 158.4 76.6797C157.742 76.9504 157.037 77.0888 156.325 77.0869C155.992 77.0866 155.659 77.0529 155.332 76.9863L157.701 66.4442C158.864 66.7426 159.893 67.4196 160.627 68.3682C161.361 69.3167 161.758 70.4827 161.754 71.6817Z" fill="#41A0DB"/>
<path opacity="0.37" d="M171.792 60.2435L186.055 53.7265L197.724 75.6398L193.729 77.1109L187.652 66.0896C186.334 63.6932 184.276 61.7863 181.786 60.6527C179.295 59.519 176.505 59.2192 173.83 59.7978L171.792 60.2435Z" fill="url(#paint8_linear)"/>
<path d="M157.947 71.9853C158.55 69.0643 158.374 66.5593 157.555 66.3903C156.735 66.2212 155.581 68.4522 154.978 71.3732C154.375 74.2943 154.55 76.7992 155.37 76.9683C156.19 77.1373 157.343 74.9063 157.947 71.9853Z" fill="#41A0DB"/>
<path opacity="0.37" d="M157.947 71.9853C158.55 69.0643 158.374 66.5593 157.555 66.3903C156.735 66.2212 155.581 68.4522 154.978 71.3732C154.375 74.2943 154.55 76.7992 155.37 76.9683C156.19 77.1373 157.343 74.9063 157.947 71.9853Z" fill="url(#paint9_linear)"/>
<path d="M168.977 61.6762L183.629 54.9916L184.151 53.1275L167.116 59.6972L168.977 61.6762Z" fill="url(#paint10_linear)"/>
<path d="M154.382 68.8209H154.349H154.095C154.058 68.8191 154.023 68.81 153.99 68.7943C153.957 68.7785 153.928 68.7564 153.904 68.7292C153.88 68.7019 153.861 68.6702 153.849 68.6357C153.838 68.6013 153.833 68.5649 153.836 68.5286C153.836 68.4919 153.844 68.4556 153.86 68.4222C153.875 68.3887 153.897 68.3589 153.925 68.3345C153.952 68.3101 153.984 68.2918 154.02 68.2807C154.055 68.2695 154.092 68.2658 154.128 68.2699H154.411C154.478 68.2815 154.539 68.3173 154.581 68.3704C154.623 68.4235 154.645 68.4903 154.641 68.5581C154.638 68.6259 154.609 68.6901 154.562 68.7385C154.514 68.787 154.45 68.8163 154.382 68.8209Z" fill="#41A0DB"/>
<path d="M124.566 104.568C124.493 104.566 124.423 104.535 124.372 104.482C124.321 104.429 124.293 104.359 124.293 104.286V103.735C124.294 103.663 124.323 103.595 124.374 103.544C124.426 103.494 124.494 103.466 124.566 103.466C124.603 103.467 124.639 103.476 124.672 103.491C124.705 103.506 124.735 103.528 124.76 103.554C124.785 103.581 124.804 103.612 124.817 103.647C124.83 103.681 124.836 103.717 124.835 103.754V104.3C124.832 104.37 124.803 104.437 124.753 104.487C124.703 104.537 124.637 104.566 124.566 104.568ZM124.801 100.208H124.777C124.741 100.205 124.705 100.194 124.673 100.178C124.641 100.161 124.612 100.137 124.589 100.109C124.565 100.081 124.548 100.049 124.538 100.014C124.527 99.9788 124.524 99.9421 124.528 99.9058L124.576 99.3595C124.578 99.3229 124.588 99.2872 124.605 99.2545C124.621 99.2218 124.644 99.1929 124.673 99.1696C124.701 99.1462 124.734 99.1289 124.769 99.1187C124.804 99.1085 124.841 99.1057 124.878 99.1103C124.914 99.1133 124.95 99.1236 124.982 99.1405C125.014 99.1574 125.043 99.1806 125.066 99.2087C125.09 99.2368 125.107 99.2693 125.117 99.3043C125.128 99.3393 125.131 99.376 125.127 99.4122L125.074 99.9537C125.07 100.019 125.043 100.08 124.997 100.127C124.951 100.173 124.89 100.202 124.825 100.208H124.801ZM125.324 95.895H125.305C125.232 95.8832 125.168 95.8434 125.124 95.7842C125.081 95.7249 125.063 95.6511 125.074 95.5787L125.166 95.0373C125.171 95.0012 125.183 94.9665 125.202 94.9353C125.221 94.9041 125.246 94.877 125.275 94.8556C125.305 94.8342 125.338 94.8188 125.374 94.8105C125.409 94.8022 125.446 94.8011 125.482 94.8072C125.555 94.8201 125.619 94.8611 125.661 94.9213C125.703 94.9814 125.72 95.0559 125.708 95.1283L125.621 95.665C125.605 95.7337 125.563 95.7938 125.505 95.8329C125.446 95.8721 125.374 95.8874 125.305 95.8758L125.324 95.895ZM126.187 91.6111H126.12C126.049 91.593 125.988 91.5476 125.95 91.4847C125.912 91.4219 125.901 91.3468 125.919 91.2756C125.962 91.0935 126.01 90.9162 126.053 90.7437C126.073 90.673 126.12 90.6128 126.183 90.5754C126.246 90.5379 126.322 90.5262 126.393 90.5425C126.465 90.5616 126.525 90.6081 126.562 90.6719C126.599 90.7357 126.609 90.8115 126.59 90.8827C126.547 91.0552 126.499 91.2325 126.456 91.4098C126.436 91.4648 126.4 91.5122 126.351 91.545C126.303 91.5778 126.245 91.5942 126.187 91.5919V91.6111ZM127.453 87.4373C127.422 87.4445 127.389 87.4445 127.357 87.4373C127.288 87.4124 127.232 87.3611 127.2 87.2947C127.169 87.2282 127.165 87.152 127.189 87.0827L127.381 86.57C127.394 86.5356 127.414 86.5041 127.439 86.4773C127.464 86.4505 127.494 86.4288 127.527 86.4137C127.561 86.3986 127.597 86.3902 127.633 86.389C127.67 86.3879 127.707 86.394 127.741 86.4071C127.775 86.4198 127.806 86.4391 127.832 86.4639C127.858 86.4887 127.879 86.5184 127.894 86.5514C127.909 86.5844 127.917 86.6199 127.918 86.656C127.919 86.6921 127.912 86.728 127.899 86.7617L127.703 87.2217C127.686 87.2756 127.653 87.3232 127.608 87.3582C127.564 87.3932 127.51 87.4141 127.453 87.4182V87.4373ZM129.185 83.4313C129.139 83.4317 129.095 83.4201 129.055 83.3978C129.023 83.3816 128.994 83.3591 128.971 83.3316C128.947 83.3041 128.93 83.2722 128.919 83.2378C128.908 83.2033 128.905 83.1671 128.908 83.1312C128.912 83.0953 128.923 83.0604 128.94 83.0288L129.194 82.5496C129.235 82.5005 129.292 82.4671 129.355 82.455C129.418 82.443 129.483 82.453 129.54 82.4834C129.596 82.5139 129.64 82.5628 129.665 82.6221C129.689 82.6813 129.692 82.7471 129.674 82.8084L129.42 83.2876C129.394 83.3263 129.359 83.358 129.318 83.3798C129.277 83.4015 129.231 83.4127 129.185 83.4122V83.4313ZM131.439 79.6937C131.382 79.6941 131.327 79.6774 131.28 79.6458C131.221 79.6025 131.181 79.5378 131.168 79.4653C131.156 79.3928 131.172 79.3183 131.213 79.2576L131.539 78.812C131.585 78.7576 131.65 78.7227 131.72 78.7143C131.791 78.706 131.862 78.7249 131.919 78.7671C131.975 78.8094 132.014 78.8718 132.027 78.9416C132.039 79.0114 132.024 79.0833 131.985 79.1426L131.664 79.5787C131.637 79.6111 131.602 79.6366 131.563 79.6532C131.524 79.6699 131.481 79.6771 131.439 79.6745V79.6937ZM134.249 76.3394C134.193 76.3403 134.138 76.3244 134.091 76.2936C134.045 76.2629 134.008 76.2187 133.987 76.1669C133.966 76.1151 133.961 76.0581 133.972 76.0034C133.984 75.9487 134.012 75.8988 134.053 75.8602C134.182 75.726 134.316 75.6014 134.446 75.472C134.499 75.4211 134.569 75.3926 134.642 75.3926C134.716 75.3926 134.786 75.4211 134.839 75.472C134.891 75.5241 134.92 75.5948 134.92 75.6685C134.92 75.7422 134.891 75.8128 134.839 75.865L134.451 76.2435C134.426 76.2726 134.395 76.2959 134.36 76.3116C134.325 76.3273 134.287 76.3352 134.249 76.3346V76.3394ZM137.606 73.5265C137.561 73.5256 137.517 73.5143 137.477 73.4935C137.437 73.4728 137.403 73.4431 137.376 73.4067C137.335 73.3462 137.32 73.2721 137.334 73.2003C137.347 73.1286 137.388 73.065 137.448 73.0234L137.899 72.7119C137.96 72.6709 138.035 72.6555 138.108 72.6689C138.18 72.6823 138.245 72.7236 138.287 72.7838C138.327 72.846 138.341 72.9209 138.326 72.9931C138.312 73.0654 138.271 73.1293 138.211 73.1719L137.765 73.4738C137.712 73.5091 137.65 73.5259 137.587 73.5217L137.606 73.5265ZM141.381 71.3318C141.319 71.3301 141.259 71.3076 141.211 71.268C141.163 71.2284 141.13 71.1739 141.117 71.1133C141.104 71.0526 141.111 70.9893 141.138 70.9334C141.165 70.8775 141.21 70.8322 141.266 70.8047L141.769 70.5747C141.803 70.5563 141.841 70.5452 141.879 70.542C141.917 70.5388 141.956 70.5437 141.993 70.5562C142.029 70.5688 142.063 70.5888 142.091 70.615C142.119 70.6412 142.142 70.673 142.157 70.7083C142.173 70.7437 142.18 70.7819 142.18 70.8204C142.18 70.859 142.172 70.8971 142.156 70.9323C142.14 70.9675 142.117 70.9991 142.089 71.0249C142.06 71.0508 142.027 71.0705 141.99 71.0827L141.51 71.3079C141.463 71.3254 141.412 71.3319 141.362 71.3271L141.381 71.3318ZM145.477 69.808C145.416 69.8089 145.358 69.7895 145.31 69.753C145.262 69.7165 145.228 69.665 145.213 69.6068C145.203 69.5719 145.2 69.5352 145.204 69.4991C145.208 69.463 145.219 69.428 145.237 69.3963C145.255 69.3647 145.279 69.3369 145.308 69.3146C145.337 69.2923 145.369 69.276 145.405 69.2666C145.584 69.2122 145.761 69.1643 145.937 69.1228C145.972 69.1127 146.009 69.1099 146.045 69.1144C146.081 69.1189 146.116 69.1308 146.147 69.1491C146.178 69.1675 146.206 69.1921 146.227 69.2213C146.249 69.2505 146.264 69.2839 146.273 69.3193C146.292 69.3904 146.282 69.4662 146.245 69.53C146.208 69.5938 146.147 69.6404 146.076 69.6595L145.553 69.7985C145.519 69.8096 145.483 69.8113 145.448 69.8032L145.477 69.808ZM149.793 68.9551C149.725 68.9513 149.661 68.9226 149.612 68.8746C149.564 68.8266 149.535 68.7625 149.531 68.6945C149.527 68.6265 149.548 68.5593 149.59 68.5058C149.632 68.4523 149.692 68.416 149.759 68.404L150.311 68.3465C150.347 68.3431 150.383 68.3467 150.418 68.3572C150.452 68.3677 150.484 68.385 150.512 68.4079C150.54 68.4308 150.563 68.459 150.58 68.4908C150.597 68.5226 150.607 68.5574 150.611 68.5933C150.614 68.6292 150.61 68.6654 150.6 68.6998C150.589 68.7343 150.572 68.7663 150.549 68.7942C150.526 68.822 150.498 68.845 150.466 68.8619C150.434 68.8788 150.4 68.8893 150.364 68.8928L149.827 68.9551H149.793Z" fill="#41A0DB"/>
<path d="M124.571 108.747C124.499 108.747 124.429 108.719 124.378 108.669C124.326 108.619 124.295 108.551 124.293 108.478V108.196C124.293 108.123 124.321 108.053 124.372 108.001C124.424 107.949 124.493 107.919 124.566 107.918C124.638 107.918 124.708 107.946 124.759 107.996C124.811 108.046 124.842 108.114 124.844 108.186V108.464C124.846 108.5 124.84 108.537 124.827 108.57C124.814 108.604 124.794 108.635 124.769 108.662C124.744 108.688 124.714 108.709 124.681 108.724C124.648 108.738 124.612 108.746 124.576 108.747H124.571Z" fill="#41A0DB"/>
<path d="M154.977 71.6529C154.977 71.6529 155.03 71.6529 154.704 71.6529C154.63 71.6505 154.56 71.6197 154.508 71.5671C154.457 71.5145 154.427 71.444 154.426 71.3702C154.434 71.2986 154.467 71.232 154.518 71.1814C154.57 71.1309 154.637 71.0994 154.709 71.0923C154.896 71.0923 154.997 71.0923 154.997 71.0923C155.033 71.0941 155.068 71.1031 155.101 71.1189C155.134 71.1346 155.163 71.1568 155.188 71.184C155.212 71.2112 155.23 71.243 155.242 71.2774C155.253 71.3119 155.258 71.3483 155.255 71.3846C155.253 71.4566 155.223 71.5249 155.171 71.5749C155.119 71.625 155.049 71.6529 154.977 71.6529Z" fill="#41A0DB"/>
<path d="M130.844 103.869C130.807 103.867 130.771 103.859 130.738 103.843C130.704 103.828 130.674 103.806 130.65 103.779C130.625 103.751 130.606 103.719 130.594 103.685C130.582 103.65 130.577 103.613 130.58 103.576V103.035C130.58 102.998 130.589 102.961 130.604 102.927C130.62 102.893 130.642 102.863 130.671 102.839C130.699 102.814 130.732 102.796 130.767 102.785C130.803 102.775 130.84 102.771 130.877 102.776C130.952 102.781 131.021 102.815 131.07 102.871C131.12 102.926 131.145 102.999 131.141 103.073L131.103 103.624C131.096 103.689 131.066 103.75 131.019 103.794C130.971 103.839 130.909 103.866 130.844 103.869ZM131.242 99.4602H131.208C131.172 99.456 131.136 99.4446 131.104 99.4267C131.072 99.4087 131.044 99.3845 131.021 99.3556C130.998 99.3266 130.981 99.2934 130.971 99.2578C130.962 99.2223 130.959 99.1852 130.964 99.1487L131.036 98.5928C131.053 98.5262 131.095 98.4684 131.152 98.4303C131.21 98.3921 131.279 98.3762 131.348 98.3857C131.416 98.3951 131.479 98.4291 131.524 98.4814C131.569 98.5337 131.593 98.6006 131.592 98.6695L131.539 99.2014C131.537 99.2379 131.527 99.2736 131.511 99.3064C131.495 99.3392 131.472 99.3685 131.444 99.3925C131.417 99.4166 131.385 99.4349 131.35 99.4465C131.315 99.4581 131.278 99.4628 131.242 99.4602ZM131.947 95.0852H131.894C131.858 95.0783 131.823 95.0643 131.792 95.0438C131.761 95.0234 131.735 94.997 131.714 94.9662C131.694 94.9354 131.679 94.9008 131.672 94.8645C131.666 94.8281 131.666 94.7908 131.674 94.7545L131.789 94.2131C131.795 94.1765 131.808 94.1416 131.829 94.1105C131.849 94.0795 131.876 94.053 131.907 94.0328C131.938 94.0125 131.973 93.9989 132.009 93.9928C132.046 93.9867 132.084 93.9883 132.12 93.9974C132.192 94.0135 132.254 94.0571 132.295 94.1189C132.335 94.1806 132.35 94.2557 132.335 94.3281L132.225 94.8647C132.211 94.9277 132.175 94.9839 132.125 95.024C132.074 95.0641 132.011 95.0857 131.947 95.0852ZM133.021 90.7725C132.996 90.7771 132.97 90.7771 132.944 90.7725C132.874 90.7513 132.814 90.7034 132.778 90.639C132.742 90.5745 132.733 90.4986 132.753 90.4275L132.92 89.8908C132.931 89.8558 132.949 89.8233 132.973 89.7952C132.996 89.7671 133.025 89.7439 133.058 89.727C133.09 89.71 133.126 89.6997 133.162 89.6966C133.199 89.6934 133.236 89.6976 133.271 89.7087C133.306 89.7196 133.338 89.7373 133.366 89.7608C133.394 89.7843 133.418 89.8132 133.435 89.8457C133.451 89.8782 133.462 89.9138 133.465 89.9503C133.468 89.9868 133.464 90.0236 133.453 90.0585L133.29 90.5856C133.273 90.6443 133.238 90.6961 133.19 90.7332C133.141 90.7703 133.082 90.7908 133.021 90.7917V90.7725ZM134.537 86.6084C134.501 86.6177 134.463 86.6177 134.426 86.6084C134.392 86.5947 134.361 86.5744 134.335 86.5485C134.309 86.5227 134.288 86.4918 134.275 86.4578C134.261 86.4238 134.254 86.3874 134.254 86.3507C134.255 86.314 134.263 86.2777 134.278 86.2442L134.508 85.7314C134.522 85.6976 134.544 85.667 134.57 85.6415C134.597 85.6161 134.628 85.5962 134.663 85.5833C134.697 85.5703 134.734 85.5644 134.771 85.566C134.808 85.5676 134.844 85.5766 134.877 85.5925C134.944 85.6238 134.996 85.6798 135.022 85.7487C135.048 85.8176 135.046 85.894 135.016 85.9614L134.791 86.4406C134.773 86.4942 134.739 86.541 134.694 86.5744C134.648 86.6079 134.593 86.6264 134.537 86.6275V86.6084ZM136.57 82.6742C136.518 82.6739 136.466 82.659 136.422 82.6311C136.39 82.612 136.363 82.5869 136.342 82.5572C136.32 82.5276 136.305 82.494 136.296 82.4583C136.288 82.4227 136.286 82.3858 136.292 82.3496C136.298 82.3135 136.311 82.2789 136.33 82.2477C136.426 82.0896 136.527 81.9315 136.628 81.7686C136.647 81.7372 136.672 81.7101 136.702 81.6887C136.732 81.6673 136.765 81.6521 136.801 81.6441C136.837 81.636 136.874 81.6353 136.91 81.6418C136.946 81.6484 136.981 81.6622 137.011 81.6823C137.074 81.7217 137.118 81.7842 137.134 81.8561C137.15 81.928 137.137 82.0034 137.098 82.0657C137.002 82.219 136.901 82.3723 136.805 82.5448C136.783 82.588 136.749 82.6245 136.708 82.6506C136.666 82.6766 136.619 82.6914 136.57 82.6934V82.6742ZM139.184 79.1043C139.117 79.1041 139.053 79.0803 139.002 79.0372C138.974 79.0133 138.951 78.9842 138.935 78.9515C138.918 78.9188 138.908 78.8832 138.906 78.8467C138.903 78.8102 138.908 78.7735 138.919 78.7388C138.931 78.704 138.949 78.6719 138.973 78.6443L139.347 78.2226C139.399 78.1705 139.47 78.1412 139.544 78.1412C139.617 78.1412 139.688 78.1705 139.74 78.2226C139.767 78.248 139.788 78.2786 139.802 78.3123C139.816 78.3461 139.824 78.3824 139.824 78.419C139.824 78.4557 139.816 78.492 139.802 78.5258C139.788 78.5595 139.767 78.59 139.74 78.6155C139.62 78.7497 139.496 78.8838 139.376 79.0228C139.327 79.08 139.259 79.1162 139.184 79.1234V79.1043ZM142.402 76.0614C142.36 76.063 142.317 76.0542 142.279 76.0358C142.24 76.0174 142.207 75.9901 142.182 75.956C142.159 75.9272 142.142 75.8941 142.132 75.8586C142.122 75.8232 142.119 75.7861 142.123 75.7495C142.128 75.713 142.139 75.6776 142.158 75.6456C142.176 75.6136 142.2 75.5856 142.229 75.5631L142.676 75.2229C142.736 75.1806 142.811 75.1635 142.885 75.1751C142.958 75.1867 143.024 75.2261 143.069 75.2851C143.09 75.3147 143.106 75.3482 143.114 75.3837C143.122 75.4193 143.124 75.4561 143.118 75.4921C143.112 75.5282 143.099 75.5627 143.08 75.5938C143.061 75.6249 143.036 75.6519 143.006 75.6733L142.57 76.0039C142.525 76.0482 142.465 76.0753 142.402 76.0806V76.0614ZM146.157 73.723C146.093 73.7246 146.03 73.7039 145.979 73.6644C145.929 73.6249 145.893 73.569 145.879 73.5062C145.865 73.4435 145.873 73.3778 145.902 73.3203C145.931 73.2628 145.979 73.2172 146.037 73.1911L146.546 72.9515C146.579 72.9364 146.615 72.928 146.652 72.9268C146.689 72.9256 146.725 72.9317 146.759 72.9446C146.794 72.9575 146.825 72.977 146.852 73.002C146.878 73.0271 146.9 73.0571 146.915 73.0905C146.93 73.1238 146.939 73.1598 146.94 73.1964C146.941 73.233 146.935 73.2695 146.922 73.3037C146.909 73.338 146.89 73.3694 146.865 73.3961C146.84 73.4228 146.809 73.4443 146.776 73.4594L146.296 73.6942C146.255 73.7224 146.207 73.739 146.157 73.7422V73.723ZM150.32 72.204C150.249 72.209 150.179 72.1865 150.124 72.1411C150.069 72.0958 150.033 72.0311 150.025 71.9603C150.016 71.8896 150.035 71.8182 150.077 71.761C150.12 71.7038 150.183 71.6651 150.253 71.6529L150.805 71.5235C150.841 71.5151 150.878 71.5141 150.914 71.5205C150.951 71.5269 150.985 71.5406 151.016 71.5607C151.047 71.5809 151.074 71.6071 151.094 71.6377C151.115 71.6684 151.129 71.7029 151.136 71.7392C151.143 71.775 151.144 71.8121 151.137 71.8482C151.131 71.8843 151.117 71.9187 151.097 71.9494C151.077 71.9802 151.051 72.0066 151.02 72.0273C150.99 72.0479 150.956 72.0624 150.92 72.0698L150.387 72.1944L150.32 72.204Z" fill="#41A0DB"/>
<path d="M130.705 108.09C130.668 108.09 130.632 108.083 130.598 108.069C130.564 108.054 130.533 108.033 130.508 108.007C130.482 107.981 130.462 107.949 130.449 107.915C130.436 107.881 130.43 107.844 130.431 107.808V107.525C130.434 107.452 130.465 107.382 130.518 107.331C130.57 107.28 130.641 107.252 130.714 107.252C130.751 107.252 130.787 107.26 130.82 107.275C130.854 107.289 130.884 107.31 130.91 107.337C130.935 107.363 130.955 107.394 130.968 107.428C130.982 107.462 130.988 107.498 130.988 107.534V107.827C130.984 107.899 130.952 107.967 130.9 108.016C130.847 108.065 130.777 108.092 130.705 108.09Z" fill="#41A0DB"/>
<path d="M154.977 75.8027H154.742C154.679 75.8027 154.618 75.7774 154.573 75.7325C154.528 75.6876 154.502 75.6266 154.502 75.5631C154.502 75.4995 154.528 75.4386 154.573 75.3937C154.618 75.3487 154.679 75.3235 154.742 75.3235H154.992C155.055 75.3235 155.116 75.3487 155.161 75.3937C155.206 75.4386 155.231 75.4995 155.231 75.5631C155.231 75.6266 155.206 75.6876 155.161 75.7325C155.116 75.7774 155.055 75.8027 154.992 75.8027H154.977Z" fill="#41A0DB"/>
<path d="M137.295 108.718C137.232 108.713 137.173 108.685 137.13 108.639C137.088 108.592 137.064 108.532 137.064 108.469V107.99C137.062 107.958 137.068 107.925 137.08 107.896C137.092 107.866 137.111 107.839 137.135 107.817C137.159 107.796 137.187 107.78 137.218 107.771C137.249 107.762 137.282 107.759 137.314 107.764C137.345 107.766 137.376 107.773 137.405 107.786C137.433 107.8 137.459 107.818 137.481 107.841C137.502 107.865 137.519 107.892 137.529 107.921C137.54 107.951 137.545 107.982 137.544 108.014V108.493C137.54 108.556 137.512 108.614 137.465 108.656C137.419 108.699 137.357 108.721 137.295 108.718ZM137.496 105.033C137.464 105.031 137.434 105.022 137.406 105.008C137.377 104.993 137.352 104.974 137.332 104.95C137.311 104.926 137.296 104.898 137.286 104.868C137.276 104.838 137.273 104.806 137.275 104.774L137.314 104.295C137.314 104.263 137.321 104.232 137.335 104.203C137.348 104.175 137.367 104.149 137.391 104.128C137.415 104.107 137.443 104.092 137.474 104.083C137.504 104.073 137.536 104.071 137.568 104.075C137.599 104.077 137.63 104.086 137.658 104.1C137.687 104.114 137.712 104.134 137.732 104.158C137.753 104.182 137.768 104.21 137.778 104.24C137.787 104.27 137.791 104.302 137.789 104.334L137.755 104.813C137.75 104.875 137.721 104.934 137.673 104.975C137.625 105.016 137.564 105.037 137.501 105.033H137.496ZM137.846 101.363H137.817C137.786 101.359 137.756 101.349 137.729 101.334C137.702 101.319 137.678 101.298 137.659 101.274C137.64 101.249 137.626 101.221 137.617 101.191C137.609 101.161 137.607 101.13 137.611 101.099L137.664 100.62C137.671 100.556 137.704 100.498 137.754 100.459C137.805 100.419 137.869 100.401 137.932 100.409C137.996 100.417 138.054 100.449 138.094 100.499C138.133 100.55 138.151 100.614 138.143 100.677L138.091 101.157C138.082 101.214 138.052 101.266 138.009 101.303C137.965 101.341 137.909 101.362 137.851 101.363H137.846ZM138.374 97.7111H138.33C138.299 97.706 138.27 97.6946 138.243 97.6777C138.216 97.6608 138.193 97.6388 138.176 97.6128C138.158 97.5869 138.145 97.5576 138.139 97.5268C138.132 97.4959 138.132 97.4641 138.139 97.4332L138.22 96.954C138.225 96.9234 138.237 96.8942 138.253 96.868C138.27 96.8417 138.291 96.8191 138.317 96.8012C138.342 96.7834 138.371 96.7708 138.401 96.7641C138.432 96.7574 138.463 96.7568 138.494 96.7624C138.556 96.774 138.612 96.8096 138.648 96.8615C138.685 96.9134 138.7 96.9775 138.69 97.0403L138.609 97.4955C138.604 97.5536 138.578 97.6078 138.535 97.6477C138.493 97.6875 138.437 97.7101 138.378 97.7111H138.374ZM139.107 94.0981H139.055C139.024 94.0913 138.995 94.0785 138.969 94.0602C138.943 94.042 138.921 94.0188 138.905 93.9919C138.888 93.9651 138.877 93.9352 138.873 93.9041C138.868 93.8729 138.869 93.8411 138.877 93.8106L138.983 93.3601C139 93.2991 139.04 93.247 139.094 93.2148C139.149 93.1827 139.214 93.1729 139.275 93.1876C139.306 93.1949 139.334 93.2081 139.359 93.2266C139.385 93.2451 139.406 93.2684 139.422 93.2951C139.438 93.3219 139.449 93.3516 139.453 93.3825C139.458 93.4134 139.456 93.4449 139.448 93.4751L139.342 93.9256C139.327 93.9749 139.297 94.0182 139.255 94.0492C139.214 94.0802 139.164 94.0973 139.112 94.0981H139.107ZM140.095 90.5425C140.072 90.5471 140.047 90.5471 140.023 90.5425C139.993 90.5333 139.965 90.5181 139.941 90.4977C139.917 90.4774 139.897 90.4524 139.882 90.4242C139.868 90.396 139.86 90.3652 139.857 90.3337C139.855 90.3021 139.86 90.2705 139.87 90.2406L140.014 89.7998C140.024 89.7699 140.039 89.7424 140.06 89.7187C140.08 89.695 140.105 89.6756 140.134 89.6618C140.162 89.6479 140.192 89.6399 140.224 89.638C140.255 89.6362 140.286 89.6407 140.316 89.6512C140.376 89.672 140.425 89.715 140.454 89.7713C140.482 89.8276 140.488 89.8927 140.469 89.9531C140.417 90.0968 140.374 90.2406 140.326 90.3892C140.308 90.4346 140.277 90.4736 140.237 90.501C140.197 90.5283 140.149 90.5428 140.1 90.5425H140.095ZM141.4 87.0971C141.367 87.0965 141.334 87.0883 141.304 87.0732C141.275 87.0612 141.249 87.0435 141.227 87.0213C141.205 86.999 141.188 86.9726 141.176 86.9436C141.164 86.9146 141.159 86.8836 141.159 86.8523C141.16 86.8211 141.167 86.7903 141.179 86.7617L141.366 86.3352C141.395 86.2813 141.443 86.2402 141.5 86.2204C141.558 86.2005 141.621 86.2034 141.677 86.2285C141.733 86.2535 141.777 86.2988 141.8 86.3552C141.823 86.4115 141.824 86.4746 141.803 86.5317L141.616 86.9486C141.598 86.9909 141.569 87.0273 141.532 87.0537C141.495 87.08 141.45 87.0951 141.405 87.0971H141.4ZM143.083 83.8147C143.039 83.8156 142.996 83.804 142.959 83.7812C142.905 83.7484 142.866 83.6958 142.851 83.6349C142.836 83.5739 142.845 83.5095 142.877 83.4553L143.122 83.0576C143.138 83.0308 143.16 83.0076 143.186 82.9893C143.211 82.971 143.24 82.9579 143.271 82.9508C143.302 82.9437 143.334 82.9426 143.365 82.9478C143.396 82.953 143.426 82.9642 143.453 82.9809C143.479 82.9976 143.503 83.0194 143.521 83.045C143.539 83.0707 143.552 83.0997 143.559 83.1304C143.567 83.1611 143.568 83.1929 143.562 83.2239C143.557 83.255 143.546 83.2848 143.529 83.3116C143.448 83.4409 143.366 83.5703 143.289 83.6997C143.268 83.7343 143.239 83.763 143.204 83.7832C143.168 83.8033 143.129 83.8141 143.088 83.8147H143.083ZM145.237 80.8294C145.207 80.83 145.178 80.8248 145.151 80.8141C145.124 80.8034 145.099 80.7874 145.078 80.7671C145.054 80.7468 145.035 80.722 145.021 80.6941C145.006 80.6662 144.998 80.6357 144.996 80.6044C144.993 80.5731 144.997 80.5418 145.008 80.5121C145.018 80.4824 145.034 80.4551 145.054 80.4316L145.366 80.0818C145.386 80.0537 145.411 80.0302 145.44 80.0127C145.47 79.9952 145.503 79.9842 145.537 79.9804C145.571 79.9766 145.605 79.9802 145.638 79.9908C145.67 80.0014 145.7 80.0189 145.725 80.042C145.75 80.0651 145.77 80.0934 145.784 80.1249C145.797 80.1563 145.804 80.1903 145.803 80.2245C145.802 80.2587 145.794 80.2923 145.779 80.323C145.764 80.3538 145.743 80.381 145.716 80.4029C145.617 80.5115 145.516 80.6265 145.414 80.7479C145.392 80.7726 145.366 80.7925 145.336 80.8065C145.307 80.8206 145.274 80.8283 145.241 80.8294H145.237ZM147.922 78.3088C147.885 78.3085 147.849 78.2996 147.815 78.283C147.782 78.2664 147.753 78.2425 147.731 78.213C147.712 78.1875 147.698 78.1586 147.691 78.128C147.684 78.0973 147.682 78.0655 147.687 78.0343C147.692 78.0032 147.703 77.9733 147.72 77.9464C147.736 77.9195 147.758 77.8961 147.783 77.8776L148.162 77.6044C148.214 77.5721 148.277 77.5609 148.337 77.5734C148.397 77.5858 148.45 77.6208 148.486 77.6712C148.521 77.7217 148.535 77.7836 148.526 77.8443C148.516 77.9049 148.484 77.9597 148.436 77.9974L148.066 78.2609C148.027 78.292 147.978 78.3088 147.927 78.3088H147.922ZM151.14 76.5263C151.077 76.5371 151.012 76.5222 150.959 76.4849C150.906 76.4476 150.871 76.3909 150.86 76.3274C150.849 76.2638 150.864 76.1986 150.901 76.146C150.939 76.0935 150.995 76.0579 151.059 76.0471L151.5 75.8889C151.558 75.8767 151.617 75.886 151.669 75.915C151.72 75.9439 151.758 75.9906 151.777 76.0461C151.796 76.1016 151.794 76.1621 151.771 76.2161C151.748 76.2702 151.707 76.314 151.654 76.3394L151.227 76.4975L151.14 76.5263Z" fill="#41A0DB"/>
<path d="M137.227 112.24C137.196 112.239 137.165 112.233 137.136 112.22C137.107 112.207 137.081 112.189 137.059 112.167C137.037 112.144 137.02 112.117 137.009 112.088C136.997 112.058 136.992 112.027 136.992 111.996V111.756C136.993 111.693 137.019 111.634 137.064 111.59C137.109 111.546 137.169 111.521 137.232 111.521C137.296 111.521 137.357 111.547 137.402 111.592C137.447 111.636 137.472 111.697 137.472 111.761V112.001C137.473 112.033 137.467 112.064 137.454 112.094C137.442 112.124 137.424 112.151 137.401 112.173C137.378 112.196 137.351 112.213 137.321 112.225C137.291 112.236 137.259 112.241 137.227 112.24Z" fill="#41A0DB"/>
<path d="M129.616 184.324C159.457 184.324 183.647 181.095 183.647 177.112C183.647 173.13 159.457 169.901 129.616 169.901C99.7752 169.901 75.5845 173.13 75.5845 177.112C75.5845 181.095 99.7752 184.324 129.616 184.324Z" fill="url(#paint11_linear)"/>
<path d="M121.468 112.207C123.386 109.878 125.832 107.894 128.724 107.065C132.081 106.107 135.635 106.739 139.103 106.466C138.441 109.365 137.217 112.106 135.501 114.535C134.641 115.835 133.539 116.956 132.254 117.837C128.873 120.013 124.499 119.452 120.48 119.241C119.425 119.184 118.24 119.207 117.501 119.96C117.175 120.295 115.847 121.302 116.024 120.185C116.082 119.83 117.382 118.642 117.617 118.206C118.711 116.091 120 114.083 121.468 112.207Z" fill="#41A0DB"/>
<path d="M113.094 110.735C112.306 109.256 111.202 107.967 109.86 106.961C108.518 105.955 106.972 105.256 105.329 104.913C102.903 104.434 100.38 104.746 97.9292 104.377C99.9483 107.956 101.003 112.389 104.413 114.679C107.382 116.673 111.358 116.467 114.188 118.695C114.979 119.318 115.574 120.348 115.967 118.862C116.183 118.057 115.818 117.468 115.487 116.783C114.518 114.837 114.106 112.667 113.094 110.735Z" fill="#41A0DB"/>
<path opacity="0.37" d="M121.468 112.207C123.386 109.878 125.832 107.894 128.724 107.065C132.081 106.107 135.635 106.739 139.103 106.466C138.441 109.365 137.217 112.106 135.501 114.535C134.641 115.835 133.539 116.956 132.254 117.837C128.873 120.013 124.499 119.452 120.48 119.241C119.425 119.184 118.24 119.207 117.501 119.96C117.175 120.295 115.847 121.302 116.024 120.185C116.082 119.83 117.382 118.642 117.617 118.206C118.711 116.091 120 114.083 121.468 112.207Z" fill="url(#paint12_linear)"/>
<path opacity="0.37" d="M113.094 110.735C112.306 109.256 111.202 107.967 109.86 106.961C108.518 105.955 106.972 105.256 105.329 104.913C102.903 104.434 100.38 104.746 97.9292 104.377C99.9483 107.956 101.003 112.389 104.413 114.679C107.382 116.673 111.358 116.467 114.188 118.695C114.979 119.318 115.574 120.348 115.967 118.862C116.183 118.057 115.818 117.468 115.487 116.783C114.518 114.837 114.106 112.667 113.094 110.735Z" fill="url(#paint13_linear)"/>
<path d="M119.885 146.008C121.482 143.382 123.683 141.034 126.489 139.779C129.731 138.341 133.434 138.471 136.896 137.699C136.649 140.731 135.807 143.685 134.417 146.392C133.731 147.825 132.777 149.113 131.606 150.187C128.494 152.87 123.995 152.918 119.899 153.273C118.825 153.369 117.631 153.56 116.988 154.423C116.705 154.806 115.511 156.009 115.549 154.859C115.549 154.49 116.701 153.105 116.878 152.636C117.67 150.337 118.677 148.119 119.885 146.008Z" fill="#41A0DB"/>
<path d="M112.533 147.805C111.49 146.444 110.16 145.329 108.637 144.539C107.115 143.749 105.437 143.303 103.723 143.234C101.2 143.148 98.7108 143.89 96.1833 143.924C98.8115 147.192 100.61 151.481 104.428 153.22C107.746 154.734 111.718 153.867 114.94 155.616C115.837 156.095 116.609 157.054 116.758 155.492C116.84 154.643 116.374 154.111 115.924 153.479C114.648 151.696 113.871 149.583 112.533 147.805Z" fill="#41A0DB"/>
<path opacity="0.37" d="M119.885 146.008C121.482 143.382 123.683 141.034 126.489 139.779C129.731 138.341 133.434 138.471 136.896 137.699C136.649 140.731 135.807 143.685 134.417 146.392C133.731 147.825 132.777 149.113 131.606 150.187C128.494 152.87 123.995 152.918 119.899 153.273C118.825 153.369 117.631 153.56 116.988 154.423C116.705 154.806 115.511 156.009 115.549 154.859C115.549 154.49 116.701 153.105 116.878 152.636C117.67 150.337 118.677 148.119 119.885 146.008Z" fill="url(#paint14_linear)"/>
<path opacity="0.37" d="M112.533 147.805C111.49 146.444 110.16 145.329 108.637 144.539C107.115 143.749 105.437 143.303 103.723 143.234C101.2 143.148 98.7108 143.89 96.1833 143.924C98.8115 147.192 100.61 151.481 104.428 153.22C107.746 154.734 111.718 153.867 114.94 155.616C115.837 156.095 116.609 157.054 116.758 155.492C116.84 154.643 116.374 154.111 115.924 153.479C114.648 151.696 113.871 149.583 112.533 147.805Z" fill="url(#paint15_linear)"/>
<path d="M117.434 99.1631H115.104V172.848H117.434V99.1631Z" fill="#41A0DB"/>
<path opacity="0.37" d="M117.434 99.1631H115.104V172.848H117.434V99.1631Z" fill="url(#paint16_linear)"/>
<path d="M115.684 102.283C123.892 102.283 130.547 95.634 130.547 87.4326C130.547 79.2311 123.892 72.5825 115.684 72.5825C107.475 72.5825 100.821 79.2311 100.821 87.4326C100.821 95.634 107.475 102.283 115.684 102.283Z" fill="#F8C244"/>
<path d="M115.684 100.088C122.679 100.088 128.35 94.4219 128.35 87.4326C128.35 80.4432 122.679 74.7772 115.684 74.7772C108.688 74.7772 103.018 80.4432 103.018 87.4326C103.018 94.4219 108.688 100.088 115.684 100.088Z" fill="#E8A825"/>
<path d="M114.523 95.4062V93.3745C113.436 93.3731 112.371 93.0676 111.449 92.4928L111.929 91.1463C112.786 91.7026 113.784 92.0019 114.806 92.0088C116.245 92.0088 117.204 91.1894 117.204 90.0441C117.204 88.8989 116.422 88.2568 114.936 87.6482C112.883 86.8432 111.617 85.9183 111.617 84.1741C111.617 82.5065 112.801 81.2414 114.653 80.9396V78.9126H115.9V80.8581C116.816 80.8684 117.716 81.1107 118.513 81.5625L118.019 82.909C117.255 82.4513 116.378 82.2141 115.487 82.2238C113.938 82.2238 113.358 83.1486 113.358 83.9489C113.358 84.9935 114.101 85.5158 115.847 86.2394C117.919 87.0827 118.964 88.1274 118.964 89.9147C118.964 91.5009 117.856 92.9911 115.789 93.3314V95.4206L114.523 95.4062Z" fill="#F8C244"/>
<path d="M134.858 173.6C130.954 175.747 124.058 177.17 116.183 177.17C108.624 177.17 101.958 175.847 97.9866 173.844C99.9698 170.772 102.688 168.242 105.895 166.481C109.102 164.721 112.697 163.787 116.356 163.763C120.015 163.738 123.623 164.625 126.853 166.343C130.083 168.06 132.834 170.554 134.858 173.6Z" fill="#41A0DB"/>
<path opacity="0.37" d="M134.858 173.6C130.954 175.747 124.058 177.17 116.183 177.17C108.624 177.17 101.958 175.847 97.9866 173.844C99.9698 170.772 102.688 168.242 105.895 166.481C109.102 164.721 112.697 163.787 116.356 163.763C120.015 163.738 123.623 164.625 126.853 166.343C130.083 168.06 132.834 170.554 134.858 173.6Z" fill="url(#paint17_linear)"/>
<path d="M159.864 133.435C161.045 131.897 162.663 130.751 164.507 130.147C166.646 129.529 168.933 129.936 171.149 129.759C170.729 131.619 169.948 133.379 168.852 134.939C168.303 135.77 167.598 136.486 166.775 137.048C164.612 138.442 161.816 138.083 159.241 137.948C158.569 137.91 157.802 137.948 157.322 138.428C157.116 138.639 156.267 139.285 156.363 138.571C156.402 138.346 157.231 137.584 157.385 137.306C158.088 135.941 158.918 134.645 159.864 133.435Z" fill="#41A0DB"/>
<path d="M154.517 132.491C154.013 131.544 153.306 130.72 152.448 130.078C151.589 129.435 150.599 128.989 149.548 128.772C147.999 128.456 146.383 128.662 144.819 128.427C146.109 130.718 146.781 133.55 148.963 135.016C150.881 136.291 153.409 136.161 155.198 137.584C155.701 137.982 156.085 138.643 156.334 137.695C156.373 137.463 156.365 137.226 156.311 136.997C156.258 136.769 156.16 136.553 156.023 136.362C155.428 135.14 155.164 133.727 154.517 132.491Z" fill="#41A0DB"/>
<path opacity="0.37" d="M159.864 133.435C161.045 131.897 162.663 130.751 164.507 130.147C166.646 129.529 168.933 129.936 171.149 129.759C170.729 131.619 169.948 133.379 168.852 134.939C168.303 135.77 167.598 136.486 166.775 137.048C164.612 138.442 161.816 138.083 159.241 137.948C158.569 137.91 157.802 137.948 157.322 138.428C157.116 138.639 156.267 139.285 156.363 138.571C156.402 138.346 157.231 137.584 157.385 137.306C158.088 135.941 158.918 134.645 159.864 133.435Z" fill="url(#paint18_linear)"/>
<path opacity="0.37" d="M154.517 132.491C154.013 131.544 153.306 130.72 152.448 130.078C151.589 129.435 150.599 128.989 149.548 128.772C147.999 128.456 146.383 128.662 144.819 128.427C146.109 130.718 146.781 133.55 148.963 135.016C150.881 136.291 153.409 136.161 155.198 137.584C155.701 137.982 156.085 138.643 156.334 137.695C156.373 137.463 156.365 137.226 156.311 136.997C156.258 136.769 156.16 136.553 156.023 136.362C155.428 135.14 155.164 133.727 154.517 132.491Z" fill="url(#paint19_linear)"/>
<path d="M158.876 155.06C159.852 153.339 161.324 151.951 163.102 151.078C165.178 150.153 167.543 150.24 169.763 149.751C169.601 151.688 169.062 153.574 168.176 155.305C167.737 156.222 167.126 157.046 166.377 157.734C164.382 159.45 161.505 159.483 158.886 159.708C158.2 159.771 157.447 159.89 157.025 160.446C156.843 160.691 156.066 161.462 156.09 160.724C156.09 160.489 156.828 159.603 156.939 159.287C157.451 157.821 158.1 156.406 158.876 155.06Z" fill="#41A0DB"/>
<path d="M154.157 156.225C153.492 155.356 152.644 154.643 151.672 154.138C150.701 153.633 149.63 153.347 148.536 153.302C146.92 153.244 145.328 153.719 143.711 153.743C145.395 155.832 146.546 158.578 148.987 159.689C151.112 160.648 153.649 160.101 155.701 161.237C156.277 161.553 156.771 162.157 156.867 161.156C156.867 160.917 156.819 160.68 156.727 160.46C156.635 160.239 156.5 160.039 156.33 159.871C155.519 158.702 155.04 157.346 154.157 156.225Z" fill="#41A0DB"/>
<path opacity="0.37" d="M158.876 155.06C159.852 153.339 161.324 151.951 163.102 151.078C165.178 150.153 167.543 150.24 169.763 149.751C169.601 151.688 169.062 153.574 168.176 155.305C167.737 156.222 167.126 157.046 166.377 157.734C164.382 159.45 161.505 159.483 158.886 159.708C158.2 159.771 157.447 159.89 157.025 160.446C156.843 160.691 156.066 161.462 156.09 160.724C156.09 160.489 156.828 159.603 156.939 159.287C157.451 157.821 158.1 156.406 158.876 155.06Z" fill="url(#paint20_linear)"/>
<path opacity="0.37" d="M154.157 156.225C153.492 155.356 152.644 154.643 151.672 154.138C150.701 153.633 149.63 153.347 148.536 153.302C146.92 153.244 145.328 153.719 143.711 153.743C145.395 155.832 146.546 158.578 148.987 159.689C151.112 160.648 153.649 160.101 155.701 161.237C156.277 161.553 156.771 162.157 156.867 161.156C156.867 160.917 156.819 160.68 156.727 160.46C156.635 160.239 156.5 160.039 156.33 159.871C155.519 158.702 155.04 157.346 154.157 156.225Z" fill="url(#paint21_linear)"/>
<path d="M157.294 125.087H155.802V172.23H157.294V125.087Z" fill="#41A0DB"/>
<path opacity="0.37" d="M157.294 125.087H155.802V172.23H157.294V125.087Z" fill="url(#paint22_linear)"/>
<path d="M156.176 127.085C161.429 127.085 165.687 122.831 165.687 117.583C165.687 112.335 161.429 108.081 156.176 108.081C150.924 108.081 146.666 112.335 146.666 117.583C146.666 122.831 150.924 127.085 156.176 127.085Z" fill="#F8C244"/>
<path d="M156.176 125.681C160.653 125.681 164.281 122.056 164.281 117.583C164.281 113.11 160.653 109.485 156.176 109.485C151.7 109.485 148.071 113.11 148.071 117.583C148.071 122.056 151.7 125.681 156.176 125.681Z" fill="#E8A825"/>
<path d="M155.433 122.682V121.388C154.736 121.385 154.054 121.189 153.462 120.822L153.773 119.96C154.324 120.32 154.967 120.513 155.625 120.516C156.536 120.516 157.155 119.989 157.155 119.255C157.155 118.522 156.651 118.11 155.716 117.727C154.406 117.214 153.596 116.62 153.596 115.503C153.602 114.981 153.803 114.48 154.158 114.098C154.514 113.715 154.999 113.478 155.519 113.433V112.139H156.315V113.385C156.901 113.392 157.475 113.547 157.984 113.836L157.663 114.684C157.173 114.393 156.612 114.242 156.042 114.248C155.054 114.248 154.68 114.842 154.68 115.355C154.68 116.021 155.159 116.356 156.277 116.816C157.601 117.358 158.267 118.024 158.267 119.169C158.258 119.719 158.046 120.246 157.671 120.649C157.297 121.053 156.787 121.304 156.239 121.354V122.682H155.433Z" fill="#F8C244"/>
<path d="M168.468 172.714C165.97 174.089 161.557 174.999 156.517 174.999C151.682 174.999 147.404 174.151 144.877 172.872C146.146 170.906 147.885 169.288 149.937 168.162C151.989 167.036 154.289 166.438 156.63 166.423C158.971 166.407 161.279 166.974 163.345 168.072C165.412 169.17 167.173 170.766 168.468 172.714Z" fill="#41A0DB"/>
<path opacity="0.37" d="M168.468 172.714C165.97 174.089 161.557 174.999 156.517 174.999C151.682 174.999 147.404 174.151 144.877 172.872C146.146 170.906 147.885 169.288 149.937 168.162C151.989 167.036 154.289 166.438 156.63 166.423C158.971 166.407 161.279 166.974 163.345 168.072C165.412 169.17 167.173 170.766 168.468 172.714Z" fill="url(#paint23_linear)"/>
</g>
<defs>
<linearGradient id="paint0_linear" x1="160.867" y1="78.4765" x2="177.283" y2="78.4765" gradientUnits="userSpaceOnUse">
<stop stop-color="#010101" stop-opacity="0"/>
<stop offset="0.95" stop-color="#010101"/>
</linearGradient>
<linearGradient id="paint1_linear" x1="194.563" y1="57.4498" x2="209.508" y2="57.4498" gradientUnits="userSpaceOnUse">
<stop stop-color="#E4C5D5"/>
<stop offset="0.42" stop-color="#E9D3CF"/>
<stop offset="1" stop-color="#EFE8CA"/>
</linearGradient>
<linearGradient id="paint2_linear" x1="6363" y1="3722.89" x2="6842.43" y2="3475.74" gradientUnits="userSpaceOnUse">
<stop stop-color="#010101" stop-opacity="0"/>
<stop offset="0.95" stop-color="#010101"/>
</linearGradient>
<linearGradient id="paint3_linear" x1="3648.99" y1="851.935" x2="3648.99" y2="916.516" gradientUnits="userSpaceOnUse">
<stop stop-color="#E4C5D5"/>
<stop offset="0.42" stop-color="#E9D3CF"/>
<stop offset="1" stop-color="#EFE8CA"/>
</linearGradient>
<linearGradient id="paint4_linear" x1="3675.14" y1="896.222" x2="3680.32" y2="951.108" gradientUnits="userSpaceOnUse">
<stop stop-color="#E4C5D5"/>
<stop offset="0.42" stop-color="#E9D3CF"/>
<stop offset="1" stop-color="#EFE8CA"/>
</linearGradient>
<linearGradient id="paint5_linear" x1="3714.59" y1="929.373" x2="3719.73" y2="984.11" gradientUnits="userSpaceOnUse">
<stop stop-color="#E4C5D5"/>
<stop offset="0.42" stop-color="#E9D3CF"/>
<stop offset="1" stop-color="#EFE8CA"/>
</linearGradient>
<linearGradient id="paint6_linear" x1="3749.49" y1="961.713" x2="3754.64" y2="1016.43" gradientUnits="userSpaceOnUse">
<stop stop-color="#E4C5D5"/>
<stop offset="0.42" stop-color="#E9D3CF"/>
<stop offset="1" stop-color="#EFE8CA"/>
</linearGradient>
<linearGradient id="paint7_linear" x1="7485.53" y1="1355.68" x2="7007.01" y2="1559.63" gradientUnits="userSpaceOnUse">
<stop stop-color="#E4C5D5"/>
<stop offset="0.42" stop-color="#E9D3CF"/>
<stop offset="1" stop-color="#EFE8CA"/>
</linearGradient>
<linearGradient id="paint8_linear" x1="10345.1" y1="3898.11" x2="11801.5" y2="2316.39" gradientUnits="userSpaceOnUse">
<stop stop-color="#010101" stop-opacity="0"/>
<stop offset="0.95" stop-color="#010101"/>
</linearGradient>
<linearGradient id="paint9_linear" x1="3730.49" y1="586.731" x2="3813.52" y2="586.731" gradientUnits="userSpaceOnUse">
<stop stop-color="#010101" stop-opacity="0"/>
<stop offset="0.95" stop-color="#010101"/>
</linearGradient>
<linearGradient id="paint10_linear" x1="6430.66" y1="973.824" x2="6371.42" y2="1777.28" gradientUnits="userSpaceOnUse">
<stop stop-color="#010101" stop-opacity="0"/>
<stop offset="0.95" stop-color="#010101"/>
</linearGradient>
<linearGradient id="paint11_linear" x1="29220.2" y1="4916.84" x2="29227.6" y2="8933.12" gradientUnits="userSpaceOnUse">
<stop stop-color="#010101" stop-opacity="0"/>
<stop offset="0.95" stop-color="#010101"/>
</linearGradient>
<linearGradient id="paint12_linear" x1="6661.45" y1="3660.09" x2="6335.25" y2="4282.93" gradientUnits="userSpaceOnUse">
<stop stop-color="#010101" stop-opacity="0"/>
<stop offset="0.95" stop-color="#010101"/>
</linearGradient>
<linearGradient id="paint13_linear" x1="4218.97" y1="3888.63" x2="4584.8" y2="4292.19" gradientUnits="userSpaceOnUse">
<stop stop-color="#010101" stop-opacity="0"/>
<stop offset="0.95" stop-color="#010101"/>
</linearGradient>
<linearGradient id="paint14_linear" x1="6075.85" y1="5794.13" x2="5567.25" y2="6459.65" gradientUnits="userSpaceOnUse">
<stop stop-color="#010101" stop-opacity="0"/>
<stop offset="0.95" stop-color="#010101"/>
</linearGradient>
<linearGradient id="paint15_linear" x1="4812.21" y1="4481.38" x2="5211.04" y2="4873.55" gradientUnits="userSpaceOnUse">
<stop stop-color="#010101" stop-opacity="0"/>
<stop offset="0.95" stop-color="#010101"/>
</linearGradient>
<linearGradient id="paint16_linear" x1="672.223" y1="21002.8" x2="692.251" y2="21002.8" gradientUnits="userSpaceOnUse">
<stop stop-color="#010101" stop-opacity="0"/>
<stop offset="0.95" stop-color="#010101"/>
</linearGradient>
<linearGradient id="paint17_linear" x1="9775.65" y1="5228.97" x2="8106.44" y2="4852.11" gradientUnits="userSpaceOnUse">
<stop stop-color="#010101" stop-opacity="0"/>
<stop offset="0.95" stop-color="#010101"/>
</linearGradient>
<linearGradient id="paint18_linear" x1="5419.74" y1="2834.6" x2="5285.48" y2="3090.19" gradientUnits="userSpaceOnUse">
<stop stop-color="#010101" stop-opacity="0"/>
<stop offset="0.95" stop-color="#010101"/>
</linearGradient>
<linearGradient id="paint19_linear" x1="3838.53" y1="3005.7" x2="3988.17" y2="3170.28" gradientUnits="userSpaceOnUse">
<stop stop-color="#010101" stop-opacity="0"/>
<stop offset="0.95" stop-color="#010101"/>
</linearGradient>
<linearGradient id="paint20_linear" x1="4984.2" y1="4001.39" x2="4776.09" y2="4274.06" gradientUnits="userSpaceOnUse">
<stop stop-color="#010101" stop-opacity="0"/>
<stop offset="0.95" stop-color="#010101"/>
</linearGradient>
<linearGradient id="paint21_linear" x1="4367.11" y1="3078.13" x2="4530.57" y2="3238.53" gradientUnits="userSpaceOnUse">
<stop stop-color="#010101" stop-opacity="0"/>
<stop offset="0.95" stop-color="#010101"/>
</linearGradient>
<linearGradient id="paint22_linear" x1="639.426" y1="14746.3" x2="647.627" y2="14746.3" gradientUnits="userSpaceOnUse">
<stop stop-color="#010101" stop-opacity="0"/>
<stop offset="0.95" stop-color="#010101"/>
</linearGradient>
<linearGradient id="paint23_linear" x1="8240.27" y1="3403.87" x2="7431.28" y2="3341.25" gradientUnits="userSpaceOnUse">
<stop stop-color="#010101" stop-opacity="0"/>
<stop offset="0.95" stop-color="#010101"/>
</linearGradient>
<clipPath id="clip0">
<rect width="250" height="201" fill="white"/>
</clipPath>
</defs>
</svg>
